# xmcd CD database file
#
# Track frame offsets:
#	150
#	47288
#	90875
#	164943
#	210943
#	240775
#	291805
#
# Disc length: 4382 seconds
#
# Revision: 2
# Processed by: cddbd v1.5.2PL0 Copyright (c) Steve Scherf et al.
# Submitted via: CDex 1.51
#
DISCID=4c111c07
DTITLE=Ornette Coleman - Vol. 225 - Harlem's Manhattan
DYEAR=1961
DGENRE=Jazz
TTITLE0=Proof readers
TTITLE1=R.P.D.D.
TTITLE2=W.R.U.
TTITLE3=Check up
TTITLE4=Eos
TTITLE5=Cross Breeding
TTITLE6=Harlem's Manhattan
EXTD=YEAR: 1961
EXTT0=
EXTT1=
EXTT2=
EXTT3=
EXTT4=
EXTT5=
EXTT6=
PLAYORDER=
